<?xml version="1.0" encoding="UTF-8"?>
<svg width="1024px" height="1024px" viewBox="0 0 1024 1024" version="1.1" xmlns="http://www.w3.org/2000/svg" xmlns:xlink="http://www.w3.org/1999/xlink">
    <title>safari-pinned-tab</title>
    <g id="safari-pinned-tab" stroke="none" stroke-width="1" fill="none" fill-rule="evenodd">
        <rect id="矩形" fill="#ECECEC" x="0" y="0" width="1024" height="1024" rx="32"></rect>
        <g id="lichi_icon" transform="translate(206.000000, 145.000000)" fill-rule="nonzero">
            <g id="body" transform="translate(0.000000, 159.000000)" fill="#FFFFFF">
                <polyline id="路径" points="154.173564 7.63403164 433.705504 0 613 204.395041 569.900362 457.303121 337.408598 576 84.9678586 467.892262 0 214.491663 154.173564 7.63403164 154.173564 7.63403164"></polyline>
            </g>
            <g id="face" transform="translate(0.000000, 159.000000)">
                <polygon id="路径" fill="#F10823" points="161.989558 6.89820359 428.361446 0 327.425703 96.0821215"></polygon>
                <polygon id="路径" fill="#F4575D" points="437.224096 3.4491018 336.780723 101.994867 608.076305 198.569718"></polygon>
                <polygon id="路径" fill="#EE5C5D" points="159.527711 15.7673225 322.502008 103.473054 97.9815261 262.131737"></polygon>
                <polygon id="路径" fill="#B90423" points="154.111647 7.39093242 90.5959839 261.639008 2.46184739 211.380667"></polygon>
                <polygon id="路径" fill="#F4575D" points="324.963855 111.356715 231.906024 307.462789 102.412851 268.537211"></polygon>
                <polygon id="路径" fill="#F10823" points="330.872289 117.269461 241.261044 309.433704 495.323695 272.971771"></polygon>
                <polyline id="路径" fill="#B90423" points="336.780723 110.863986 502.709237 270.015398 606.106827 205.96065"></polyline>
                <polygon id="路径" fill="#F4575D" points="0 214.33704 81.7333333 324.215569 85.6722892 470.063302"></polygon>
                <polygon id="路径" fill="#F4575D" points="551.946185 318.302823 613 207.931565 570.163855 453.310522"></polygon>
                <polygon id="路径" fill="#B90423" points="90.1036145 470.556031 287.051406 470.556031 337.273092 575.507271 381.093976 463.165098 569.179116 457.252352 337.273092 576"></polygon>
            </g>
            <g id="eyes" transform="translate(197.000000, 495.000000)" fill="#560106">
                <path d="M30.5870025,89 L8.99327052,89 C4.05191309,89 0,85.0411862 0,80.1048874 L0,8.89511258 C0,4.00768808 4.00249952,0 8.99327052,0 L30.5870025,0 C35.5283599,0 39.580273,3.95881384 39.580273,8.89511258 L39.580273,80.1048874 C39.580273,85.0411862 35.5777735,89 30.5870025,89 Z" id="路径"></path>
                <path d="M248.006729,89 L226.412998,89 C221.47164,89 217.419727,85.0411862 217.419727,80.1048874 L217.419727,8.89511258 C217.419727,4.00768808 221.422226,0 226.412998,0 L248.006729,0 C252.948087,0 257,3.95881384 257,8.89511258 L257,80.1048874 C257,85.0411862 252.9975,89 248.006729,89 Z" id="路径"></path>
            </g>
            <g id="leaf" transform="translate(396.000000, 0.000000)">
                <path d="M39.3507434,150.495076 C39.1053581,150.495076 38.8599727,150.346451 38.7618186,150.049201 C37.8293542,146.333579 32.2836451,119.977434 54.5646357,96.9901192 C78.6124008,72.2193059 97.7524588,71.7238897 106.586332,68.2559758 C114.880357,64.9862285 144.719216,49.132908 150.01954,45.1200363 C150.36308,44.8723282 150.85385,45.0704947 150.902928,45.4668277 C151.639084,49.7769492 154.338323,67.3642266 152.178931,78.1643011 C149.725078,90.5497077 143.345058,126.219679 92.7956746,151.485908 C92.7956746,151.485908 64.1346647,166.546563 44.4056818,163.623607 C43.865834,163.524523 43.7676799,162.830941 44.2093735,162.583233 C49.4115431,159.511652 68.1099075,148.562952 72.1833044,145.540913 C79.5448652,140.091334 93.2864453,131.173841 97.7033817,119.779267 C98.9793856,116.459978 99.4701563,114.478313 99.6664646,113.338856 C99.7646188,112.793898 99.0775397,112.447107 98.7340002,112.84344 C92.8938287,118.738893 61.0918862,149.603326 39.3507434,150.495076 Z" id="路径" fill="#1B6022"></path>
                <path d="M21.8302288,0.0371562198 C21.7811518,-0.0123854066 21.6829976,-0.0123854066 21.6339205,0.0371562198 C20.1125313,1.77111315 3.475404,20.7950977 0.628933841,42.9897463 C-1.77584267,62.1623558 3.08278743,79.6505499 8.97203604,97.9809517 C14.1251286,113.982897 18.0022172,122.058182 29.0936354,135.137172 L31.8419515,138.357377 C31.9401056,138.456461 32.0873368,138.406919 32.0873368,138.307836 C32.234568,137.317003 32.7253388,133.650923 33.5105719,122.751765 C33.8541114,118.193935 28.2593252,109.771859 26.6397819,99.9626168 C24.676699,88.0726264 26.5416277,77.6688849 26.6397819,74.1018878 C26.6397819,73.9532629 26.8851672,73.9037212 26.9342443,74.0523461 C28.4065564,78.8083423 33.4124178,100.705741 35.0319611,103.430531 C37.9765854,108.384693 38.5164332,110.168192 38.9581269,110.861775 C39.0072039,110.960858 39.4979747,109.771859 39.5470517,109.672776 C40.7249015,107.790194 50.6384699,92.234123 56.6258727,87.5772101 C63.005892,82.6230475 66.39221,80.1459662 65.9505163,77.2230102 C65.9505163,77.2230102 65.9505163,77.1734686 65.9505163,77.1734686 C65.3125144,76.2817193 46.7123042,50.2723654 39.9396683,40.0172488 C33.0688783,29.6630488 28.1611711,8.0628997 21.8302288,0.0371562198 Z" id="路径" fill="#2D9606"></path>
            </g>
        </g>
    </g>
</svg>