<?xml version="1.0" encoding="UTF-8"?>
<svg width="1024px" height="1024px" viewBox="0 0 1024 1024" version="1.1" xmlns="http://www.w3.org/2000/svg" xmlns:xlink="http://www.w3.org/1999/xlink">
    <title>vuejs-fill</title>
    <g id="vuejs-fill" stroke="none" stroke-width="1" fill="none" fill-rule="evenodd">
        <g id="lichi_icon" transform="translate(131.000000, 55.000000)" fill-rule="nonzero">
            <g id="body" transform="translate(0.000000, 198.000000)" fill="#FFFFFF">
                <polyline id="路径" points="191.899558 9.50277897 539.832463 0 763 254.429243 709.353957 569.247114 419.971876 717 105.759341 582.428388 0 266.997435 191.899558 9.50277897 191.899558 9.50277897"></polyline>
            </g>
            <g id="face" transform="translate(0.000000, 198.000000)">
                <polygon id="路径" fill="#F10823" points="201.628112 8.58682635 533.180723 0 407.546185 119.602224"></polygon>
                <polygon id="路径" fill="#F4575D" points="544.212048 4.29341317 419.190361 126.962361 756.871486 247.17793"></polygon>
                <polygon id="路径" fill="#EE5C5D" points="198.563855 19.6270317 401.417671 128.802395 121.95743 326.299401"></polygon>
                <polygon id="路径" fill="#B90423" points="191.82249 9.20017109 112.764659 325.686056 3.06425703 263.124893"></polygon>
                <polygon id="路径" fill="#F4575D" points="404.481928 138.615911 288.653012 382.727117 127.473092 334.272883"></polygon>
                <polygon id="路径" fill="#F10823" points="411.836145 145.976048 300.297189 385.180496 616.528514 339.792985"></polygon>
                <polyline id="路径" fill="#B90423" points="419.190361 138.002566 625.721285 336.112917 754.42008 256.378101"></polyline>
                <polygon id="路径" fill="#F4575D" points="0 266.804962 101.733333 403.580838 106.636145 585.130881"></polygon>
                <polygon id="路径" fill="#F4575D" points="687.006426 396.220701 763 258.83148 709.681928 564.27716"></polygon>
                <polygon id="路径" fill="#B90423" points="112.151807 585.744226 357.292369 585.744226 419.803213 716.386655 474.346988 576.544055 708.456225 569.183918 419.803213 717"></polygon>
            </g>
            <g id="eyes" transform="translate(244.000000, 616.000000)" fill="#560106">
                <path d="M38.0849837,111 L11.1978466,111 C5.04518362,111 0,106.062603 0,99.9060956 L0,11.0939044 C0,4.99835255 4.98365699,0 11.1978466,0 L38.0849837,0 C44.2376466,0 49.2828302,4.93739703 49.2828302,11.0939044 L49.2828302,99.9060956 C49.2828302,106.062603 44.2991732,111 38.0849837,111 Z" id="路径"></path>
                <path d="M308.802153,111 L281.915016,111 C275.762353,111 270.71717,106.062603 270.71717,99.9060956 L270.71717,11.0939044 C270.71717,4.99835255 275.700827,0 281.915016,0 L308.802153,0 C314.954816,0 320,4.93739703 320,11.0939044 L320,99.9060956 C320,106.062603 315.016343,111 308.802153,111 Z" id="路径"></path>
            </g>
            <g id="leaf" transform="translate(493.000000, 0.000000)">
                <path d="M48.8669363,186.283539 C48.5622094,186.283539 48.2574825,186.09957 48.1355917,185.731633 C46.9776294,181.132418 40.0908011,148.508653 67.7600051,120.054843 C97.6232429,89.3934092 121.391942,88.7801805 132.362111,84.4875798 C142.661881,80.4402706 179.716674,60.8169532 186.298775,55.849801 C186.725393,55.5431867 187.334847,55.7884781 187.395792,56.2790611 C188.309973,61.6141505 191.661969,83.3837682 188.980372,96.7521532 C185.933103,112.08287 178.010203,156.235334 115.236459,187.509996 C115.236459,187.509996 79.6443548,206.152148 55.1443108,202.534099 C54.4739116,202.411453 54.3520208,201.552933 54.9005292,201.246318 C61.3607399,197.444301 84.5809309,183.891947 89.6393977,180.151252 C98.7812051,173.405737 115.845912,162.367621 121.330997,148.263361 C122.915577,144.154729 123.525031,141.701815 123.768812,140.291389 C123.890703,139.616837 123.037468,139.187577 122.61085,139.67816 C115.358349,146.975581 75.8657411,185.179727 48.8669363,186.283539 Z" id="路径" fill="#1B6022"></path>
                <path d="M27.1094345,0.0459921502 C27.0484891,-0.0153307167 26.9265983,-0.0153307167 26.865653,0.0459921502 C24.9763461,2.19229249 4.31586118,25.7402734 0.781028952,53.2129177 C-2.20529482,76.9448672 3.82829811,98.5918392 11.1417441,121.2813 C17.5410093,141.088586 22.3556946,151.084213 36.1293512,167.27345 L39.5422927,171.259436 C39.6641834,171.382082 39.8470196,171.320759 39.8470196,171.198114 C40.0298557,169.971656 40.6393096,165.433764 41.6144357,151.942733 C42.0410534,146.30103 35.0932797,135.876142 33.0820821,123.734215 C30.6442667,109.016727 32.9601913,96.1389245 33.0820821,91.7236781 C33.0820821,91.5397095 33.386809,91.4783867 33.4477544,91.6623553 C35.2761158,97.5493505 41.4925449,124.654058 43.5037426,128.026815 C47.1604656,134.159102 47.8308648,136.366725 48.3793732,137.225245 C48.4403186,137.347891 49.0497725,135.876142 49.1107178,135.753497 C50.573407,133.423228 62.8843744,114.167847 70.3197112,108.403498 C78.242611,102.271211 82.4478424,99.2050679 81.899334,95.5870187 C81.899334,95.5870187 81.899334,95.5256959 81.899334,95.5256959 C81.107044,94.4218843 58.0087438,62.2273792 49.5982809,49.5335457 C41.0659273,36.7170665 34.9713889,9.98029658 27.1094345,0.0459921502 Z" id="路径" fill="#2D9606"></path>
            </g>
        </g>
    </g>
</svg>